# xmcd CD database file
#
# Track frame offsets:
#	182
#	16707
#	36185
#	53280
#	72655
#	99775
#	123995
#	140095
#	161192
#	182887
#
# Disc length: 2716 seconds
#
# Revision: 6
# Processed by: cddbd v1.5.2PL0 Copyright (c) Steve Scherf et al.
# Submitted via: CDex 1.72
#
DISCID=820a9a0a
DTITLE=Walker, Jerry Jeff (USA-89-Live At Gruene Hall-Cty) - Live At Gruene Hall
DYEAR=1989
DGENRE=Country
TTITLE0=Lovin' Makes Livin' Worthwhile
TTITLE1=Pickup Truck Song
TTITLE2=Long Long Time
TTITLE3=I Feel Like Hank Williams Tonight
TTITLE4=Man With the Big Hat
TTITLE5=Quiet Faith of Man
TTITLE6=Little Bird
TTITLE7=Woman In Texas
TTITLE8=Rodeo Wind
TTITLE9=Trashy Women
EXTD=YEAR: 1989
EXTT0=
EXTT1=
EXTT2=
EXTT3=
EXTT4=
EXTT5=
EXTT6=
EXTT7=
EXTT8=
EXTT9=
PLAYORDER=
